# xmcd
#
# Track frame offsets:
#	225
#	19495
#	40128
#	58143
#	72042
#	95540
#	113821
#	130486
#	157210
#	172311
#	188070
#	210463
#
# Disc length: 3044 seconds
#
# Revision: 0
# Processed by: cddbd v1.5.1PL2 Copyright (c) Steve Scherf et al.
# Submitted via: dBpowerAMP V4.0
#
DISCID=b40be10c
DTITLE=Various Artist - Beach Mania
DYEAR=1900
DGENRE=Beach
TTITLE0=William Bell - That's My Job
TTITLE1=Joey Gilmore - Letting A Good Thing Go Bad
TTITLE2=William Bell - I've Got To Go On Without  You
TTITLE3=William Bell - Any Other Way
TTITLE4=Rick Hinkle - Lonely Street
TTITLE5=Joey Gilmore - Chip Off the Old Block
TTITLE6=William Bell - Easy Coming Out.."Hard Going In"
TTITLE7=Rick Hinkle - I'm Lonely
TTITLE8=William Bell - Tryin To Love Two
TTITLE9=Michael A. and The A.G.'s - Until We're Crazy
TTITLE10=Eddie Floyd - From Your Head To Your Toes
TTITLE11=B-Mack - Where Did Your Love Go
EXTD=
EXTT0=
EXTT1=
EXTT2=
EXTT3=
EXTT4=
EXTT5=
EXTT6=
EXTT7=
EXTT8=
EXTT9=
EXTT10=
EXTT11=
PLAYORDER=
